<svg width="24" height="24" viewBox="0 0 24 24" fill="none" xmlns="http://www.w3.org/2000/svg">
<path d="M21.7155 5.75429H13.3877L16.7189 1.31273C16.9493 1.0064 16.887 0.57132 16.58 0.341633C16.275 0.11257 15.8393 0.173586 15.6089 0.480539L11.925 5.39171L8.32719 1.7939C8.0561 1.5228 7.61695 1.5228 7.34594 1.7939C7.07492 2.06499 7.07484 2.50413 7.34594 2.77523L10.325 5.75429H2.28492C1.13695 5.75429 0.203125 6.68812 0.203125 7.83609V18.9392C0.203125 20.0872 1.13695 21.021 2.28492 21.021H5.3257L4.44 22.7925C4.26852 23.1354 4.40742 23.5522 4.75039 23.7236C5.0968 23.8955 5.51094 23.7534 5.68156 23.4132L6.87766 21.0209H17.1229L18.319 23.4132C18.4898 23.7537 18.9041 23.8954 19.2501 23.7236C19.593 23.5522 19.7319 23.1354 19.5605 22.7925L18.6748 21.021H21.7155C22.8635 21.021 23.7974 20.0872 23.7974 18.9392V7.83609C23.7973 6.68812 22.8634 5.75429 21.7155 5.75429Z" fill="url(#paint0_linear_1_69)"/>
<defs>
<linearGradient id="paint0_linear_1_69" x1="12.0002" y1="23.7969" x2="12.0002" y2="0.203118" gradientUnits="userSpaceOnUse">
<stop stop-color="#FFA68D"/>
<stop offset="1" stop-color="#FD3A84"/>
</linearGradient>
</defs>
</svg>
