<svg width="26" height="26" viewBox="0 0 26 26" fill="none" xmlns="http://www.w3.org/2000/svg">
<path d="M20.8788 12.3309C20.8788 15.2854 19.2251 17.9761 16.6242 19.3244V23.0005C15.4926 23.4118 14.272 23.6364 13 23.6364C11.728 23.6364 10.5074 23.4119 9.37576 23.0005V19.3244C6.77489 17.9762 5.12121 15.2854 5.12121 12.3309C5.12121 9.55555 6.54302 7.03749 8.92454 5.59496C9.26341 5.38964 9.6887 5.38318 10.0343 5.57802C10.3813 5.7735 10.597 6.14222 10.597 6.5401V10.491L13 12.093L15.403 10.491V6.54018C15.403 6.14222 15.6186 5.77358 15.9657 5.5781C16.3115 5.38326 16.7367 5.38972 17.0755 5.59512C19.457 7.03757 20.8788 9.55563 20.8788 12.3309ZM26 13C26 5.8318 20.1682 0 13 0C5.8318 0 0 5.8318 0 13C0 20.1682 5.8318 26 13 26C20.1682 26 26 20.1682 26 13ZM23.6364 13C23.6364 18.8649 18.8649 23.6364 13 23.6364C7.13511 23.6364 2.36364 18.8649 2.36364 13C2.36364 7.13511 7.13511 2.36364 13 2.36364C18.8649 2.36364 23.6364 7.13511 23.6364 13Z" fill="url(#paint0_linear_1_97)"/>
<defs>
<linearGradient id="paint0_linear_1_97" x1="13" y1="26" x2="13" y2="0" gradientUnits="userSpaceOnUse">
<stop stop-color="#FD3A84"/>
<stop offset="1" stop-color="#FFA68D"/>
</linearGradient>
</defs>
</svg>
